<?xml version="1.0" encoding="UTF-8"?>
<svg xmlns="http://www.w3.org/2000/svg" xmlns:xlink="http://www.w3.org/1999/xlink" width="35px" height="35px" viewBox="0 0 35 35" version="1.1">
<g id="surface1">
<rect x="0" y="0" width="35" height="35" style="fill:rgb(96.862745%,87.450981%,11.764706%);fill-opacity:1;stroke:none;"/>
<path style=" stroke:none;fill-rule:nonzero;fill:rgb(0%,0%,0%);fill-opacity:1;" d="M 23.511719 27.34375 C 24.214844 28.496094 25.132812 29.339844 26.753906 29.339844 C 28.117188 29.339844 28.988281 28.660156 28.988281 27.71875 C 28.988281 26.589844 28.09375 26.191406 26.59375 25.535156 L 25.773438 25.183594 C 23.398438 24.171875 21.820312 22.90625 21.820312 20.226562 C 21.820312 17.761719 23.703125 15.882812 26.640625 15.882812 C 28.730469 15.882812 30.234375 16.609375 31.316406 18.515625 L 28.753906 20.160156 C 28.191406 19.148438 27.582031 18.75 26.640625 18.75 C 25.675781 18.75 25.066406 19.363281 25.066406 20.160156 C 25.066406 21.148438 25.675781 21.546875 27.085938 22.15625 L 27.910156 22.511719 C 30.703125 23.707031 32.28125 24.929688 32.28125 27.675781 C 32.28125 30.636719 29.957031 32.261719 26.832031 32.261719 C 23.777344 32.261719 21.804688 30.804688 20.839844 28.898438 Z M 11.894531 27.628906 C 12.410156 28.546875 12.878906 29.320312 14.007812 29.320312 C 15.089844 29.320312 15.773438 28.898438 15.773438 27.253906 L 15.773438 16.070312 L 19.0625 16.070312 L 19.0625 27.296875 C 19.0625 30.703125 17.0625 32.253906 14.148438 32.253906 C 11.515625 32.253906 9.992188 30.890625 9.214844 29.25 Z M 11.894531 27.628906 "/>
</g>
</svg>
